<?xml version="1.0" encoding="UTF-8"?>
<svg width="60px" height="60px" viewBox="0 0 60 60" version="1.1" xmlns="http://www.w3.org/2000/svg" xmlns:xlink="http://www.w3.org/1999/xlink">
    <title>cos</title>
    <g id="Page-1" stroke="none" stroke-width="1" fill="none" fill-rule="evenodd">
        <g id="cos" fill-rule="nonzero">
            <g id="Path-Clipped">
                <path d="M30,0 C41.878411,0 52.1444163,6.90353025 57.0046735,16.9172487 L35.0158692,38.9367675 L18.4277343,22.672526 L1.58387527,39.6443467 C1.63589702,39.7976727 1.68912488,39.9504418 1.74354755,40.102643 C0.614794215,36.94594 0,33.5447663 0,30 C0,13.4314575 13.4314575,0 30,0 Z" id="path-1--Path-∩-path-1" fill="#00BE54"></path>
                <path d="M57.0046735,16.9172487 C57.0197925,16.948399 57.0348593,16.9795793 57.0498738,17.0107898 L57.0038635,16.9155798 C57.2419498,17.4060382 57.467068,17.9039585 57.6787722,18.4088953 L57.6786428,18.408587 C57.8824738,18.8947455 58.0737565,19.3870915 58.252223,19.8855365 L58.2522392,19.8855817 C58.7846633,21.3726068 59.2030295,22.9139615 59.496777,24.4990562 L59.4967463,24.498891 C59.6893053,25.5379605 59.8283003,26.5956545 59.9107933,27.6691692 L59.9107503,27.6686108 C59.950532,28.1863053 59.977159,28.7071128 59.9903425,29.2312598 L59.9903137,29.2301185 L60,30 L60,30 C60,46.3844475 46.8653612,59.7011358 30.5511087,59.9950395 L30,60 C29.5874702,60 29.1768852,59.9916735 28.7684038,59.9751792 L29.2812907,59.9915598 C29.0868597,59.9869887 28.8928863,59.9805677 28.6993877,59.9723138 L28.7684038,59.9751792 C28.5836097,59.9677173 28.3992458,59.9585838 28.2153273,59.9477935 L28.6993877,59.9723138 C28.4634647,59.9622503 28.2282472,59.9494622 27.9937658,59.9339798 L28.2153273,59.9477935 C28.0058495,59.9355037 27.7969492,59.9210643 27.5886482,59.9044975 L27.9937658,59.9339798 C27.8183112,59.922395 27.6432687,59.9093017 27.4686513,59.8947128 L27.4688145,59.8947265 C27.0601533,59.8605838 26.6539815,59.81827 26.2503005,59.7679358 L26.2506893,59.7679843 C25.8724998,59.7208287 25.4968808,59.6666965 25.1235782,59.6056743 C24.7436585,59.5435737 24.3658987,59.4742877 23.9906835,59.3979987 L24.2586022,59.4511965 C24.0446408,59.409729 23.8314908,59.3659878 23.6191782,59.3199992 L23.9906835,59.3979987 C23.8347392,59.3662918 23.6792343,59.3333753 23.5241793,59.2992595 L23.6191782,59.3199992 C23.4648755,59.286576 23.3110153,59.2519657 23.1576073,59.2161783 L23.5241793,59.2992595 C23.2970293,59.2492808 23.0708447,59.196728 22.8456575,59.1416332 L23.1576073,59.2161783 C22.985821,59.1761035 22.8146018,59.1345527 22.6439638,59.09154 L22.6441678,59.0915913 C22.3350722,59.0136777 22.0280853,58.9310248 21.7230872,58.843665 C21.624592,58.8154557 21.5256657,58.7865655 21.4269525,58.757181 C21.0365267,58.6409552 20.6497782,58.517114 20.2665323,58.3857297 L20.4675245,58.453834 C20.278834,58.390647 20.0909798,58.3256357 19.9039828,58.2588208 L20.2665323,58.3857297 C20.0778915,58.32106 19.8900993,58.2545627 19.7031768,58.186259 L19.9039828,58.2588208 C19.7588407,58.2069608 19.6142148,58.1540145 19.4701153,58.0999913 L19.7031768,58.186259 C19.5240998,58.120822 19.3458212,58.0537273 19.1683592,57.9849932 L19.4701153,58.0999913 C19.2431972,58.0149195 19.0175838,57.9271778 18.7933137,57.8368045 L19.1683592,57.9849932 C19.0168603,57.926315 18.8659568,57.866442 18.71566,57.8053858 L18.7933137,57.8368045 C18.6337952,57.7725238 18.4749562,57.7069118 18.3168105,57.6399823 L18.71566,57.8053858 C18.5293635,57.7297052 18.3439993,57.6522065 18.1595895,57.572912 L18.1586537,57.5725097 C17.9278013,57.4732452 17.6975208,57.3707412 17.468792,57.2654437 C17.187896,57.1361355 16.9089517,57.0024207 16.632435,56.8645622 L16.8401153,56.9670992 C16.6960502,56.8966637 16.5526326,56.8251078 16.4098743,56.7524428 L16.632435,56.8645622 C16.4785228,56.7878287 16.3253627,56.7098113 16.1729688,56.6305242 L16.4098743,56.7524428 C16.2169223,56.6542288 16.0251745,56.5539888 15.8346589,56.4517507 L16.1729688,56.6305242 C16.0156091,56.5486535 15.8590662,56.465429 15.7033558,56.380866 L15.8346589,56.4517507 C15.7018572,56.3804838 15.5696541,56.3082463 15.4380593,56.2350475 L15.7033558,56.380866 C15.5147821,56.2784557 15.3274292,56.1740825 15.1413246,56.0677738 L15.4380593,56.2350475 C15.2784757,56.14628 15.1197866,56.0560985 14.962009,55.9645203 L15.1413246,56.0677738 C14.9782841,55.97464 14.8162017,55.8800207 14.6550957,55.7839343 L14.962009,55.9645203 C14.8090518,55.8757402 14.6569513,55.785647 14.5057227,55.6942565 L14.6550957,55.7839343 C14.4790948,55.6789645 14.3042593,55.5722437 14.1306133,55.463796 L14.5057227,55.6942565 C14.341332,55.5949118 14.1779716,55.494034 14.0156614,55.391643 L14.015887,55.3917853 C13.4930413,55.0619557 12.9813092,54.7165792 12.4811265,54.356175 L12.4815956,54.356513 C12.1666661,54.1295922 11.8567707,53.8970695 11.5516045,53.6587715 L11.7021285,53.7755485 C11.5925859,53.6911183 11.483643,53.6059482 11.3753074,53.5200452 L11.5516045,53.6587715 C11.4006317,53.5408798 11.2508164,53.4215748 11.1021785,53.300876 L11.3753074,53.5200452 C11.2139637,53.3921105 11.053967,53.2625507 10.895342,53.1313905 L11.1021785,53.300876 C10.9718733,53.195064 10.8424731,53.0881812 10.7139911,52.9802405 L10.7143711,52.9805597 C10.3062655,52.6377008 9.90778738,52.2845102 9.51898525,51.9210968 C9.11008985,51.5389182 8.71146028,51.1449785 8.32405612,50.740207 L8.49425847,50.9166002 C8.37217045,50.7910952 8.25117162,50.6645252 8.13127723,50.5369053 L8.13050242,50.5360807 C7.34065967,49.6953447 6.59806863,48.8081373 5.90788033,47.8796595 L5.9078884,47.8796705 C5.73600732,47.648447 5.56738395,47.414675 5.40207777,47.1784113 C5.24378103,46.952166 5.0885233,46.7236315 4.93636687,46.4928713 C4.59381177,45.9733425 4.26711508,45.4427747 3.95680025,44.9016125 L4.05516942,45.071863 C3.9587217,44.906195 3.8638153,44.7395192 3.77046985,44.5718552 L3.95680025,44.9016125 C3.85358083,44.7216068 3.75217392,44.5404288 3.6526044,44.3581037 L3.77046985,44.5718552 C3.69437113,44.4351692 3.61930985,44.2978263 3.54529665,44.1598373 L3.6526044,44.3581037 C3.56416768,44.1961642 3.47718048,44.0333195 3.3916602,43.8695873 L3.39134117,43.8689765 C2.93136682,42.9883358 2.51356885,42.0813705 2.14098547,41.1514107 L2.23891562,41.3927812 C2.16608872,41.2155108 2.09491038,41.0373892 2.02539968,40.8584352 L2.02538573,40.8583993 C1.9281771,40.6081373 1.83421687,40.3562113 1.7435712,40.1027092 L1.58387527,39.6443467 L1.58387527,39.6443467 L18.4277343,22.672526 L35.0158692,38.9367675 L57.0046735,16.9172487 Z" id="Path-∩-path-1-∩-path-1" fill="#FFFFFF"></path>
            </g>
        </g>
    </g>
</svg>