<?xml version="1.0" encoding="UTF-8"?>
<svg width="60px" height="35px" viewBox="0 0 60 35" version="1.1" xmlns="http://www.w3.org/2000/svg" xmlns:xlink="http://www.w3.org/1999/xlink">
    <title>Group 13</title>
    <g id="Page-1" stroke="none" stroke-width="1" fill="none" fill-rule="evenodd">
        <g id="Artboard" transform="translate(-137.000000, -191.000000)" fill-rule="nonzero">
            <g id="Group-13" transform="translate(137.000000, 191.000000)">
                <path d="M0,34.7826087 L0,21.3835089 C5.59199502,21.3764148 10.9526068,19.1204001 14.9042683,15.1109922 C18.8559297,11.1015842 21.0755513,5.6666327 21.0754804,0 L34.313188,0 C34.3062357,9.22077983 30.6892059,18.062022 24.2560773,24.5831182 C17.8229487,31.1042853 9.09932777,34.772464 0,34.7826087 Z" id="Path" fill="#FFFFFF"></path>
                <path d="M21.0869565,34.7826087 L21.0869565,21.3835089 C26.6796397,21.3774789 32.041195,19.1218899 35.9936368,15.1123401 C39.9461495,11.1027902 42.1662678,5.66729246 42.1662678,0 L55.4039044,0 C55.3959589,9.22113454 51.7780778,18.0623057 45.3443817,24.5834019 C38.9106146,31.1044272 30.186639,34.772464 21.0869565,34.7826087 Z" id="Path" fill="#FFFFFF"></path>
                <circle id="Oval" fill="#2CBC63" cx="55.4347826" cy="30.4347826" r="4.34782609"></circle>
            </g>
        </g>
    </g>
</svg>